<svg id="Layer_1" data-name="Layer 1" xmlns="http://www.w3.org/2000/svg" viewBox="0 0 423.72 406.69"><defs><style>.cls-1{fill:#f7edf9;}.cls-2{fill:none;stroke:#ffda8e;stroke-linecap:round;stroke-miterlimit:10;stroke-width:14.04px;}.cls-3{fill:#80d4f6;}.cls-4{fill:#fff;}</style></defs><title>large</title><g id="Layer_2" data-name="Layer 2"><path class="cls-1" d="M423,448l0.71-80.35L282.86,344.27h0l-178.21-8.7a9.32,9.32,0,0,0-5,6.34c-0.67,3,15.11,104,17.53,106.46" transform="translate(0 -41.68)"/><path class="cls-1" d="M0,448V366.48l133.61-22.21h0l178.21-8.7a9.32,9.32,0,0,1,5,6.34c0.67,3,2.47,104,.05,106.46" transform="translate(0 -41.68)"/></g><path class="cls-2" d="M78.34,232.46C78.34,131,130.72,48.7,203.86,48.7S329.63,131,329.63,232.46c0,50.74-62.05,20.45-128.26,20.45S78.34,283.2,78.34,232.46Z" transform="translate(0 -41.68)"/><path class="cls-3" d="M306.52,373.09H107.27c-4.37,0-8-6.94-8-15.43L67.5,231.56c0-8.49,53.1,0,57.47,0H304c4.37,0,38.32-8.49,38.32,0l-27.8,126.1C314.47,366.15,310.89,373.09,306.52,373.09Z" transform="translate(0 -41.68)"/><polygon class="cls-4" points="145.05 189.89 85.03 260.65 90.32 280.31 167.01 189.89 145.05 189.89"/><polyline class="cls-4" points="104.85 187.65 117.56 189.1 238.23 331.42 216.26 331.42 93.46 186.62 104.85 187.65"/><polygon class="cls-4" points="269 189.89 290.97 189.89 170.93 331.42 148.97 331.42 269 189.89"/><path class="cls-4" d="M197.1,231.56h22l97.78,115.29-2.69,15.06a16.67,16.67,0,0,1-.61,2.92c-0.07.24-.28,1-0.52,1.64s-0.48,1.2-.48,1.2Z" transform="translate(0 -41.68)"/><polygon class="cls-4" points="341.62 192.86 333.9 227.85 246.06 331.42 224.1 331.42 341.62 192.86"/></svg>