<svg id="Layer_1" data-name="Layer 1" xmlns="http://www.w3.org/2000/svg" viewBox="0 0 432.99 402.47"><defs><style>.cls-1,.cls-10,.cls-12,.cls-14,.cls-16,.cls-18,.cls-21,.cls-4,.cls-6,.cls-8{fill:none;stroke-linecap:round;stroke-miterlimit:10;stroke-width:5.06px;}.cls-1{stroke:#8c6239;}.cls-2{fill:#f4c684;}.cls-3{fill:#fff;}.cls-4{stroke:#8283a7;}.cls-5{fill:#d9e1e8;}.cls-6{stroke:#ee2560;}.cls-7{fill:#45d9fd;}.cls-8{stroke:#b4b3e2;}.cls-9{fill:#f286a7;}.cls-10{stroke:#67d5b5;}.cls-11{fill:#ee7785;}.cls-12{stroke:#c89ec4;}.cls-13{fill:#84b1ed;}.cls-14{stroke:#f68657;}.cls-15{fill:#383a3f;}.cls-16{stroke:#87396f;}.cls-17{fill:#a0a0e0;}.cls-18{stroke:#0b9400;}.cls-19{fill:#662d91;}.cls-20{fill:#56d9ef;}.cls-21{stroke:#fab1ce;}.cls-22{fill:#f349eb;}</style></defs><title>minis</title><path class="cls-1" d="M5.51,107.75C5.51,70.88,24.24,41,50.4,41s45,29.88,45,66.75c0,18.43-22,1.83-45.7,1.83S5.51,126.18,5.51,107.75Z" transform="translate(0 -38.32)"/><path class="cls-2" d="M87,163.32H15.09c-1.58,0-2.87-2.91-2.87-6.46L0.74,104.11c0-3.55,19.15,0,20.73,0H86c1.58,0,13.82-3.55,13.82,0l-10,52.75C89.82,160.42,88.53,163.32,87,163.32Z" transform="translate(0 -38.32)"/><polygon class="cls-3" points="32.91 60.05 2.69 101.39 6.65 106.81 36.87 65.47 32.91 60.05"/><polygon class="cls-3" points="9.34 63.37 13.3 57.96 62.15 124.76 58.19 130.18 9.34 63.37"/><polygon class="cls-3" points="77.33 60.45 81.29 65.87 32.44 132.68 28.48 127.26 77.33 60.45"/><polygon class="cls-3" points="46.36 64.25 50.33 58.84 99.18 125.64 95.22 131.06 46.36 64.25"/><polygon class="cls-3" points="104.82 59.91 108.78 65.33 59.93 132.14 55.97 126.72 104.82 59.91"/><path class="cls-4" d="M113.55,107.75c0-36.86,18.73-66.75,44.89-66.75s45,29.88,45,66.75c0,18.43-22,1.83-45.7,1.83S113.55,126.18,113.55,107.75Z" transform="translate(0 -38.32)"/><path class="cls-5" d="M195,163.32H123.13c-1.58,0-2.87-2.91-2.87-6.46l-11.48-52.75c0-3.55,19.15,0,20.73,0h64.56c1.58,0,13.82-3.55,13.82,0l-10,52.75C197.86,160.42,196.57,163.32,195,163.32Z" transform="translate(0 -38.32)"/><polygon class="cls-3" points="140.95 60.05 110.73 101.39 114.69 106.81 144.91 65.47 140.95 60.05"/><polygon class="cls-3" points="117.38 63.37 121.34 57.96 170.19 124.76 166.23 130.18 117.38 63.37"/><polygon class="cls-3" points="185.37 60.45 189.33 65.87 140.48 132.68 136.52 127.26 185.37 60.45"/><polygon class="cls-3" points="154.4 64.25 158.37 58.84 207.22 125.64 203.26 131.06 154.4 64.25"/><polygon class="cls-3" points="212.86 59.91 216.83 65.33 167.97 132.14 164.01 126.72 212.86 59.91"/><path class="cls-6" d="M221.67,107.6c0-36.86,18.73-66.75,44.89-66.75s45,29.88,45,66.75c0,18.43-22,1.83-45.7,1.83S221.67,126,221.67,107.6Z" transform="translate(0 -38.32)"/><path class="cls-7" d="M303.12,163.17H231.25c-1.58,0-2.87-2.91-2.87-6.46L216.91,104c0-3.55,19.15,0,20.73,0h64.56c1.58,0,13.82-3.55,13.82,0l-10,52.75C306,160.27,304.69,163.17,303.12,163.17Z" transform="translate(0 -38.32)"/><polygon class="cls-3" points="249.07 59.91 218.85 101.24 222.81 106.66 253.03 65.32 249.07 59.91"/><polygon class="cls-3" points="225.5 63.22 229.46 57.81 278.31 124.61 274.35 130.03 225.5 63.22"/><polygon class="cls-3" points="293.49 60.3 297.45 65.72 248.6 132.53 244.64 127.11 293.49 60.3"/><polygon class="cls-3" points="262.52 64.1 266.49 58.69 315.34 125.49 311.38 130.91 262.52 64.1"/><polygon class="cls-3" points="320.98 59.76 324.95 65.18 276.09 131.99 272.13 126.57 320.98 59.76"/><path class="cls-8" d="M329.71,107.6c0-36.86,18.73-66.75,44.89-66.75s45,29.88,45,66.75c0,18.43-22,1.83-45.7,1.83S329.71,126,329.71,107.6Z" transform="translate(0 -38.32)"/><path class="cls-9" d="M411.16,163.17H339.29c-1.58,0-2.87-2.91-2.87-6.46L324.95,104c0-3.55,19.15,0,20.73,0h64.56c1.58,0,13.82-3.55,13.82,0l-10,52.75C414,160.27,412.73,163.17,411.16,163.17Z" transform="translate(0 -38.32)"/><polygon class="cls-3" points="357.11 59.91 326.89 101.24 330.85 106.66 361.07 65.32 357.11 59.91"/><polygon class="cls-3" points="333.54 63.22 337.5 57.81 386.35 124.61 382.39 130.03 333.54 63.22"/><polygon class="cls-3" points="401.53 60.3 405.49 65.72 356.64 132.53 352.68 127.11 401.53 60.3"/><polygon class="cls-3" points="370.56 64.1 374.53 58.69 423.38 125.49 419.42 130.91 370.56 64.1"/><polygon class="cls-3" points="429.02 59.76 432.99 65.18 384.13 131.99 380.17 126.57 429.02 59.76"/><path class="cls-10" d="M5.38,242.72C5.38,205.85,24.11,176,50.27,176s45,29.88,45,66.75c0,18.43-22,1.83-45.7,1.83S5.38,261.15,5.38,242.72Z" transform="translate(0 -38.32)"/><path class="cls-11" d="M86.82,298.29H15c-1.58,0-2.87-2.91-2.87-6.46L0.61,239.08c0-3.55,19.15,0,20.73,0H85.9c1.58,0,13.82-3.55,13.82,0l-10,52.75C89.69,295.39,88.4,298.29,86.82,298.29Z" transform="translate(0 -38.32)"/><polygon class="cls-3" points="32.78 195.03 2.56 236.36 6.52 241.78 36.74 200.44 32.78 195.03"/><polygon class="cls-3" points="9.21 198.34 13.17 192.93 62.02 259.74 58.06 265.15 9.21 198.34"/><polygon class="cls-3" points="77.2 195.42 81.16 200.84 32.31 267.65 28.35 262.23 77.2 195.42"/><polygon class="cls-3" points="46.23 199.22 50.2 193.81 99.05 260.61 95.08 266.03 46.23 199.22"/><polygon class="cls-3" points="104.69 194.88 108.66 200.3 59.8 267.11 55.84 261.69 104.69 194.88"/><path class="cls-12" d="M113.42,242.72c0-36.86,18.73-66.75,44.89-66.75s45,29.88,45,66.75c0,18.43-22,1.83-45.7,1.83S113.42,261.15,113.42,242.72Z" transform="translate(0 -38.32)"/><path class="cls-13" d="M194.86,298.29H123c-1.58,0-2.87-2.91-2.87-6.46l-11.48-52.75c0-3.55,19.15,0,20.73,0h64.56c1.58,0,13.82-3.55,13.82,0l-10,52.75C197.73,295.39,196.44,298.29,194.86,298.29Z" transform="translate(0 -38.32)"/><polygon class="cls-3" points="140.82 195.03 110.6 236.36 114.56 241.78 144.78 200.44 140.82 195.03"/><polygon class="cls-3" points="117.25 198.34 121.21 192.93 170.06 259.74 166.1 265.15 117.25 198.34"/><polygon class="cls-3" points="185.24 195.42 189.2 200.84 140.35 267.65 136.39 262.23 185.24 195.42"/><polygon class="cls-3" points="154.27 199.22 158.24 193.81 207.09 260.61 203.13 266.03 154.27 199.22"/><polygon class="cls-3" points="212.73 194.88 216.69 200.3 167.84 267.11 163.88 261.69 212.73 194.88"/><path class="cls-1" d="M221.54,242.57c0-36.86,18.73-66.75,44.89-66.75s45,29.88,45,66.75c0,18.43-22,1.83-45.7,1.83S221.54,261,221.54,242.57Z" transform="translate(0 -38.32)"/><path class="cls-2" d="M303,298.14H231.12c-1.58,0-2.87-2.91-2.87-6.46l-11.48-52.75c0-3.55,19.15,0,20.73,0h64.56c1.58,0,13.82-3.55,13.82,0l-10,52.75C305.85,295.24,304.56,298.14,303,298.14Z" transform="translate(0 -38.32)"/><polygon class="cls-3" points="248.94 194.88 218.72 236.21 222.68 241.63 252.9 200.29 248.94 194.88"/><polygon class="cls-3" points="225.37 198.19 229.33 192.78 278.18 259.59 274.22 265 225.37 198.19"/><polygon class="cls-3" points="293.36 195.27 297.32 200.69 248.47 267.5 244.51 262.08 293.36 195.27"/><polygon class="cls-3" points="262.39 199.07 266.36 193.66 315.21 260.46 311.25 265.88 262.39 199.07"/><polygon class="cls-3" points="320.85 194.73 324.81 200.15 275.96 266.96 272 261.54 320.85 194.73"/><path class="cls-14" d="M329.58,242.57c0-36.86,18.73-66.75,44.89-66.75s45,29.88,45,66.75c0,18.43-22,1.83-45.7,1.83S329.58,261,329.58,242.57Z" transform="translate(0 -38.32)"/><path class="cls-15" d="M411,298.14H339.16c-1.58,0-2.87-2.91-2.87-6.46l-11.48-52.75c0-3.55,19.15,0,20.73,0H410.1c1.58,0,13.82-3.55,13.82,0l-10,52.75C413.89,295.24,412.6,298.14,411,298.14Z" transform="translate(0 -38.32)"/><polygon class="cls-3" points="356.98 194.88 326.76 236.21 330.72 241.63 360.94 200.29 356.98 194.88"/><polygon class="cls-3" points="333.41 198.19 337.37 192.78 386.22 259.59 382.26 265 333.41 198.19"/><polygon class="cls-3" points="401.4 195.27 405.36 200.69 356.51 267.5 352.55 262.08 401.4 195.27"/><polygon class="cls-3" points="370.43 199.07 374.4 193.66 423.25 260.46 419.29 265.88 370.43 199.07"/><polygon class="cls-3" points="428.89 194.73 432.86 200.15 384 266.96 380.04 261.54 428.89 194.73"/><path class="cls-16" d="M4.77,377.54c0-36.86,18.73-66.75,44.89-66.75s45,29.88,45,66.75c0,18.43-22,1.83-45.7,1.83S4.77,396,4.77,377.54Z" transform="translate(0 -38.32)"/><path class="cls-17" d="M86.21,433.11H14.34c-1.58,0-2.87-2.91-2.87-6.46L0,373.9c0-3.55,19.15,0,20.73,0H85.29c1.58,0,13.82-3.55,13.82,0l-10,52.75C89.08,430.21,87.79,433.11,86.21,433.11Z" transform="translate(0 -38.32)"/><polygon class="cls-3" points="32.17 329.85 1.94 371.18 5.9 376.6 36.13 335.26 32.17 329.85"/><polygon class="cls-3" points="8.59 333.17 12.55 327.75 61.41 394.56 57.44 399.97 8.59 333.17"/><polygon class="cls-3" points="76.59 330.24 80.55 335.66 31.7 402.47 27.74 397.05 76.59 330.24"/><polygon class="cls-3" points="45.62 334.05 49.58 328.63 98.43 395.44 94.47 400.85 45.62 334.05"/><polygon class="cls-3" points="104.08 329.7 108.04 335.12 59.19 401.93 55.23 396.51 104.08 329.7"/><path class="cls-18" d="M112.81,377.54c0-36.86,18.73-66.75,44.89-66.75s45,29.88,45,66.75c0,18.43-22,1.83-45.7,1.83S112.81,396,112.81,377.54Z" transform="translate(0 -38.32)"/><path class="cls-19" d="M194.25,433.11H122.39c-1.58,0-2.87-2.91-2.87-6.46L108,373.9c0-3.55,19.15,0,20.73,0h64.56c1.58,0,13.82-3.55,13.82,0l-10,52.75C197.12,430.21,195.83,433.11,194.25,433.11Z" transform="translate(0 -38.32)"/><polygon class="cls-3" points="140.21 329.85 109.98 371.18 113.94 376.6 144.17 335.26 140.21 329.85"/><polygon class="cls-3" points="116.63 333.17 120.59 327.75 169.44 394.56 165.48 399.97 116.63 333.17"/><polygon class="cls-3" points="184.63 330.24 188.59 335.66 139.74 402.47 135.78 397.05 184.63 330.24"/><polygon class="cls-3" points="153.66 334.05 157.62 328.63 206.47 395.44 202.51 400.85 153.66 334.05"/><polygon class="cls-3" points="212.12 329.7 216.08 335.12 167.23 401.93 163.27 396.51 212.12 329.7"/><path class="cls-1" d="M220.93,377.39c0-36.86,18.73-66.75,44.89-66.75s45,29.88,45,66.75c0,18.43-22,1.83-45.7,1.83S220.93,395.82,220.93,377.39Z" transform="translate(0 -38.32)"/><path class="cls-20" d="M302.37,433H230.51c-1.58,0-2.87-2.91-2.87-6.46l-11.48-52.75c0-3.55,19.15,0,20.73,0h64.56c1.58,0,13.82-3.55,13.82,0l-10,52.75C305.24,430.06,303.95,433,302.37,433Z" transform="translate(0 -38.32)"/><polygon class="cls-3" points="248.33 329.7 218.1 371.03 222.06 376.45 252.29 335.12 248.33 329.7"/><polygon class="cls-3" points="224.75 333.02 228.71 327.6 277.56 394.41 273.6 399.82 224.75 333.02"/><polygon class="cls-3" points="292.75 330.09 296.71 335.51 247.86 402.32 243.9 396.9 292.75 330.09"/><polygon class="cls-3" points="261.78 333.9 265.74 328.48 314.59 395.29 310.63 400.7 261.78 333.9"/><polygon class="cls-3" points="320.24 329.55 324.2 334.97 275.35 401.78 271.39 396.36 320.24 329.55"/><path class="cls-21" d="M329,377.39c0-36.86,18.73-66.75,44.89-66.75s45,29.88,45,66.75c0,18.43-22,1.83-45.7,1.83S329,395.82,329,377.39Z" transform="translate(0 -38.32)"/><path class="cls-22" d="M410.41,433H338.55c-1.58,0-2.87-2.91-2.87-6.46L324.2,373.75c0-3.55,19.15,0,20.73,0h64.56c1.58,0,13.82-3.55,13.82,0l-10,52.75C413.28,430.06,412,433,410.41,433Z" transform="translate(0 -38.32)"/><polygon class="cls-3" points="356.37 329.7 326.14 371.03 330.1 376.45 360.33 335.12 356.37 329.7"/><polygon class="cls-3" points="332.79 333.02 336.75 327.6 385.61 394.41 381.64 399.82 332.79 333.02"/><polygon class="cls-3" points="400.79 330.09 404.75 335.51 355.9 402.32 351.94 396.9 400.79 330.09"/><polygon class="cls-3" points="369.82 333.9 373.78 328.48 422.63 395.29 418.67 400.7 369.82 333.9"/><polygon class="cls-3" points="428.28 329.55 432.24 334.97 383.39 401.78 379.43 396.36 428.28 329.55"/></svg>