<svg id="Layer_1" data-name="Layer 1" xmlns="http://www.w3.org/2000/svg" viewBox="0 0 356.61 353.05"><defs><style>.cls-1{fill:#e8e8e8;}.cls-2{fill:none;stroke:#67d5b5;stroke-linecap:round;stroke-miterlimit:10;stroke-width:11.87px;}.cls-3{fill:#ee7785;}.cls-4{fill:#fff;}</style></defs><title>small</title><g id="Layer_2" data-name="Layer 2"><path class="cls-1" d="M424.11,322.53l-92-93s-9.1-2.53-12.68-.75L104.65,335.57a9.39,9.39,0,0,0-2.46,15l97.92,97.75L423,448Z" transform="translate(-67.5 -95.32)"/></g><path class="cls-2" d="M80.26,238.51c0-75.8,50.12-137.26,120.11-137.26s120.35,61.45,120.35,137.26c0,37.9-58.92,3.77-122.29,3.77S80.26,276.42,80.26,238.51Z" transform="translate(-67.5 -95.32)"/><path class="cls-3" d="M298.2,352.79H105.89c-4.22,0-7.67-6-7.67-13.28L67.5,231c0-7.3,51.25,0,55.47,0H295.72c4.22,0,37-7.3,37,0L305.87,339.52C305.87,346.82,302.42,352.79,298.2,352.79Z" transform="translate(-67.5 -95.32)"/><polygon class="cls-4" points="86.08 123.92 5.2 208.91 15.8 220.05 96.68 135.06 86.08 123.92"/><polygon class="cls-4" points="22.99 130.74 33.59 119.6 164.78 257.47 143.58 257.47 22.99 130.74"/><polygon class="cls-4" points="204.94 124.73 215.54 135.87 99.83 257.47 78.63 257.47 204.94 124.73"/><path class="cls-4" d="M189.58,227.87l10.6-11.14,108,113.49-2.6,13a13,13,0,0,1-.59,2.51c-0.07.21-.27,0.85-0.5,1.41s-0.46,1-.46,1Z" transform="translate(-67.5 -95.32)"/><polygon class="cls-4" points="264.57 138.27 257.13 168.37 172.35 257.47 151.15 257.47 264.57 138.27"/></svg>